<?xml version="1.0" encoding="utf-8"?>
<!-- Svg Vector Icons : http://www.onlinewebfonts.com/icon -->
<!DOCTYPE svg PUBLIC "-//W3C//DTD SVG 1.1//EN" "http://www.w3.org/Graphics/SVG/1.1/DTD/svg11.dtd">
<svg version="1.1" xmlns="http://www.w3.org/2000/svg" xmlns:xlink="http://www.w3.org/1999/xlink" x="0px" y="0px" viewBox="0 0 1000 1000" enable-background="new 0 0 1000 1000" xml:space="preserve">
<metadata> Svg Vector Icons : http://www.onlinewebfonts.com/icon </metadata>
<g><path d="M778.8,222.6l-88.6,88.6c-48.1-48.1-114.6-77.8-187.9-77.8c-146.8,0-265.8,119.1-265.8,265.9c0,0.1,0-0.1,0-0.1l103.3,0.1L174.7,678.2L10,499.2h101.1l0,0c0-216,175.1-391.2,391.1-391.2C610.3,108,708,151.8,778.8,222.6z M990,500.8L824.3,323.1L660.3,500.8h103.3c0,0.1,0-0.1,0-0.1c0,146.9-119,265.9-265.8,265.9c-73.4,0-139.9-29.8-187.9-77.8l-88.6,88.6C291.9,848.2,389.7,892,497.7,892c216,0,391.1-175.2,391.1-391.2l0,0L990,500.8L990,500.8z"/></g>
</svg>